<svg xmlns="http://www.w3.org/2000/svg" xmlns:xlink="http://www.w3.org/1999/xlink" width="60" zoomAndPan="magnify" viewBox="0 0 45 44.999999" height="60" preserveAspectRatio="xMidYMid meet" version="1.0"><defs><clipPath id="2f97d4d137"><path d="M 2.699219 2.699219 L 41.699219 2.699219 L 41.699219 41.699219 L 2.699219 41.699219 Z M 2.699219 2.699219 " clip-rule="nonzero"/></clipPath></defs><g clip-path="url(#2f97d4d137)"><path fill="#ab2849" d="M 41.699219 22.199219 C 41.699219 22.839844 41.667969 23.476562 41.605469 24.109375 C 41.542969 24.746094 41.449219 25.378906 41.324219 26.003906 C 41.199219 26.628906 41.046875 27.25 40.859375 27.859375 C 40.675781 28.472656 40.460938 29.070312 40.214844 29.660156 C 39.972656 30.253906 39.699219 30.828125 39.398438 31.390625 C 39.097656 31.957031 38.769531 32.503906 38.414062 33.035156 C 38.058594 33.5625 37.679688 34.078125 37.273438 34.570312 C 36.867188 35.0625 36.441406 35.535156 35.988281 35.988281 C 35.535156 36.441406 35.0625 36.867188 34.570312 37.273438 C 34.078125 37.679688 33.5625 38.058594 33.035156 38.414062 C 32.503906 38.769531 31.957031 39.097656 31.390625 39.398438 C 30.828125 39.699219 30.253906 39.96875 29.664062 40.214844 C 29.070312 40.460938 28.472656 40.675781 27.859375 40.859375 C 27.25 41.046875 26.628906 41.199219 26.003906 41.324219 C 25.378906 41.449219 24.746094 41.542969 24.109375 41.605469 C 23.476562 41.667969 22.839844 41.699219 22.199219 41.699219 C 21.5625 41.699219 20.925781 41.667969 20.289062 41.605469 C 19.652344 41.542969 19.023438 41.449219 18.394531 41.324219 C 17.769531 41.199219 17.152344 41.046875 16.539062 40.859375 C 15.929688 40.675781 15.328125 40.460938 14.738281 40.214844 C 14.148438 39.96875 13.570312 39.699219 13.007812 39.398438 C 12.445312 39.097656 11.898438 38.769531 11.367188 38.414062 C 10.835938 38.058594 10.324219 37.679688 9.828125 37.273438 C 9.335938 36.867188 8.863281 36.441406 8.410156 35.988281 C 7.960938 35.535156 7.53125 35.0625 7.125 34.570312 C 6.722656 34.078125 6.339844 33.5625 5.988281 33.03125 C 5.632812 32.503906 5.304688 31.957031 5.003906 31.390625 C 4.703125 30.828125 4.429688 30.253906 4.183594 29.660156 C 3.941406 29.070312 3.726562 28.472656 3.539062 27.859375 C 3.355469 27.25 3.199219 26.628906 3.074219 26.003906 C 2.949219 25.378906 2.855469 24.746094 2.792969 24.109375 C 2.730469 23.476562 2.699219 22.839844 2.699219 22.199219 C 2.699219 21.5625 2.730469 20.925781 2.792969 20.289062 C 2.855469 19.652344 2.949219 19.023438 3.074219 18.394531 C 3.199219 17.769531 3.355469 17.152344 3.539062 16.539062 C 3.726562 15.929688 3.941406 15.328125 4.183594 14.738281 C 4.429688 14.148438 4.703125 13.570312 5.003906 13.007812 C 5.304688 12.445312 5.632812 11.898438 5.988281 11.367188 C 6.339844 10.835938 6.722656 10.324219 7.125 9.828125 C 7.53125 9.335938 7.960938 8.863281 8.410156 8.410156 C 8.863281 7.960938 9.335938 7.53125 9.828125 7.125 C 10.324219 6.722656 10.835938 6.339844 11.367188 5.988281 C 11.898438 5.632812 12.445312 5.304688 13.007812 5.003906 C 13.570312 4.703125 14.148438 4.429688 14.738281 4.183594 C 15.328125 3.941406 15.929688 3.726562 16.539062 3.539062 C 17.152344 3.355469 17.769531 3.199219 18.394531 3.074219 C 19.023438 2.949219 19.652344 2.855469 20.289062 2.792969 C 20.925781 2.730469 21.5625 2.699219 22.199219 2.699219 C 22.839844 2.699219 23.476562 2.730469 24.109375 2.792969 C 24.746094 2.855469 25.378906 2.949219 26.003906 3.074219 C 26.628906 3.199219 27.25 3.355469 27.859375 3.539062 C 28.472656 3.726562 29.070312 3.941406 29.664062 4.183594 C 30.253906 4.429688 30.828125 4.703125 31.390625 5.003906 C 31.957031 5.304688 32.503906 5.632812 33.035156 5.988281 C 33.5625 6.339844 34.078125 6.722656 34.570312 7.125 C 35.0625 7.53125 35.535156 7.960938 35.988281 8.410156 C 36.441406 8.863281 36.867188 9.335938 37.273438 9.828125 C 37.679688 10.324219 38.058594 10.835938 38.414062 11.367188 C 38.769531 11.898438 39.097656 12.445312 39.398438 13.007812 C 39.699219 13.570312 39.972656 14.148438 40.214844 14.738281 C 40.460938 15.328125 40.675781 15.929688 40.859375 16.539062 C 41.046875 17.152344 41.199219 17.769531 41.324219 18.394531 C 41.449219 19.023438 41.542969 19.652344 41.605469 20.289062 C 41.667969 20.925781 41.699219 21.5625 41.699219 22.199219 Z M 41.699219 22.199219 " fill-opacity="1" fill-rule="nonzero"/></g><path fill="#f2f2db" d="M 31.445312 26.59375 C 31.445312 28.699219 30.835938 30.390625 29.621094 31.65625 C 28.410156 32.925781 26.9375 33.761719 25.210938 34.167969 L 25.210938 36.757812 C 25.210938 37.703125 25.121094 38.363281 24.945312 38.742188 C 24.769531 39.121094 24.511719 39.378906 24.175781 39.511719 C 23.839844 39.644531 23.386719 39.710938 22.820312 39.710938 C 22.253906 39.710938 21.800781 39.644531 21.464844 39.511719 C 21.125 39.375 20.890625 39.132812 20.753906 38.78125 C 20.566406 38.324219 20.472656 37.636719 20.472656 36.71875 L 20.472656 34.207031 C 19.367188 33.964844 18.367188 33.5625 17.476562 32.992188 C 16.585938 32.425781 15.964844 31.925781 15.613281 31.496094 L 15.085938 30.808594 C 14.519531 30.078125 14.234375 29.445312 14.234375 28.90625 C 14.234375 28.363281 14.695312 27.648438 15.613281 26.757812 C 16.152344 26.246094 16.726562 25.988281 17.332031 25.988281 C 17.941406 25.988281 18.785156 26.527344 19.863281 27.609375 C 20.699219 28.636719 21.644531 29.148438 22.699219 29.148438 C 24.695312 29.148438 25.695312 28.324219 25.695312 26.675781 C 25.695312 26.085938 25.316406 25.625 24.5625 25.300781 C 23.804688 24.976562 22.886719 24.6875 21.808594 24.429688 C 20.730469 24.171875 19.648438 23.828125 18.570312 23.398438 C 17.488281 22.964844 16.570312 22.222656 15.816406 21.171875 C 15.058594 20.117188 14.683594 18.785156 14.683594 17.164062 C 14.683594 15.542969 15.195312 14.085938 16.21875 12.792969 C 17.246094 11.496094 18.664062 10.65625 20.472656 10.28125 L 20.472656 8.011719 C 20.472656 7.09375 20.554688 6.433594 20.714844 6.027344 C 20.984375 5.378906 21.699219 5.054688 22.863281 5.054688 C 23.589844 5.054688 24.136719 5.210938 24.5 5.519531 C 24.867188 5.832031 25.074219 6.164062 25.128906 6.511719 C 25.183594 6.863281 25.207031 7.378906 25.207031 8.050781 L 25.207031 10.320312 C 25.964844 10.480469 26.652344 10.710938 27.273438 11.007812 C 27.894531 11.304688 28.328125 11.546875 28.570312 11.734375 L 28.933594 12.058594 L 29.097656 12.179688 C 29.769531 12.800781 30.109375 13.3125 30.109375 13.71875 C 30.109375 14.125 29.789062 14.800781 29.15625 15.742188 C 28.523438 16.6875 27.828125 17.160156 27.070312 17.160156 C 26.585938 17.160156 26.175781 17.039062 25.835938 16.796875 C 25.5 16.554688 25.234375 16.351562 25.046875 16.191406 C 24.859375 16.027344 24.683594 15.894531 24.523438 15.785156 C 24.0625 15.488281 23.484375 15.339844 22.78125 15.339844 C 22.078125 15.339844 21.5 15.507812 21.039062 15.84375 C 20.582031 16.183594 20.351562 16.648438 20.351562 17.242188 C 20.351562 17.835938 20.628906 18.316406 21.183594 18.679688 C 21.734375 19.042969 22.417969 19.289062 23.226562 19.40625 C 24.035156 19.53125 24.925781 19.730469 25.898438 20.015625 C 26.871094 20.296875 27.761719 20.628906 28.570312 21.007812 C 29.378906 21.386719 30.0625 22.054688 30.617188 23.011719 C 31.164062 23.972656 31.445312 25.164062 31.445312 26.59375 Z M 31.445312 26.59375 " fill-opacity="1" fill-rule="nonzero"/></svg>